<svg xmlns="http://www.w3.org/2000/svg" width="321" height="97" viewBox="0 0 321 97"><defs><linearGradient id="qs9ua" x1="310" x2="290" y1="23" y2="43" gradientUnits="userSpaceOnUse"><stop offset="0" stop-color="#eb410e"/><stop offset="1" stop-color="#b32900"/></linearGradient><linearGradient id="qs9ub" x1="10" x2="49" y1="67" y2="66" gradientUnits="userSpaceOnUse"><stop offset="0" stop-color="#7a3c82"/><stop offset="1" stop-color="#571e64"/></linearGradient><linearGradient id="qs9uc" x1="31" x2="50" y1="71" y2="71" gradientUnits="userSpaceOnUse"><stop offset="0" stop-color="#fabf26"/><stop offset="1" stop-color="#e57d09"/></linearGradient><linearGradient id="qs9ud" x1="17" x2="264" y1="37" y2="37" gradientUnits="userSpaceOnUse"><stop offset="0" stop-color="#ffea00"/><stop offset="1" stop-color="#faa826"/></linearGradient><linearGradient id="qs9ue" x1="223" x2="264" y1="12" y2="11" gradientUnits="userSpaceOnUse"><stop offset="0" stop-color="#571e64"/><stop offset="1" stop-color="#7a3c82"/></linearGradient></defs><g><g><g><g><path fill="red" d="M310 23l-5 19.999-15-20z"/><path fill="url(#qs9ua)" d="M310 23l-5 19.999-15-20z"/></g><g><path fill="red" d="M20 51L10 82l39-8.002z"/><path fill="url(#qs9ub)" d="M20 51L10 82l39-8.002z"/></g><g><path fill="red" d="M46 67.999l4 6-19-5z"/><path fill="url(#qs9uc)" d="M46 67.999l4 6-19-5z"/></g><g><path fill="red" d="M21 5l-4 41.999 14 22h193l9-51 31-13z"/><path fill="url(#qs9ud)" d="M21 5l-4 41.999 14 22h193l9-51 31-13z"/></g><g><path fill="red" d="M310.405 49.33C308.118 62.138 306 77 306 77h-94l10-59h66.541"/><path fill="#eb410e" d="M310.405 49.33C308.118 62.138 306 77 306 77h-94l10-59h66.541"/></g><g><path fill="red" d="M262 17.999h-39l41-13z"/><path fill="url(#qs9ue)" d="M262 17.999h-39l41-13z"/></g></g></g></g></svg>