<svg xmlns="http://www.w3.org/2000/svg" width="116" height="155" viewBox="0 0 116 155"><g><g><path fill="#e3d5b8" d="M116 58.125c0 6.806-1.227 13.308-3.373 19.375l-15.96 32.292c-1.347 2.705-3.7 5.297-6.52 6.105.012.12.075.228.075.353v6.458c0 3.57-2.882 6.459-6.444 6.459v6.458a6.448 6.448 0 0 1-6.445 6.458v6.459c0 3.57-2.882 6.458-6.444 6.458H45.111c-3.561 0-6.444-2.888-6.444-6.458v-6.459a6.448 6.448 0 0 1-6.445-6.458v-6.458c-3.561 0-6.444-2.889-6.444-6.459v-6.458c0-.114.057-.207.063-.315-2.757-.732-4.79-3.305-6.507-6.143L3.374 77.5C1.226 71.433 0 64.931 0 58.125 0 26.023 25.967 0 58 0c32.034 0 58 26.023 58 58.125zm-45.11 83.958H45.11v6.459H70.89zm6.443-12.916H38.667v6.458h38.666zm6.445-12.917H32.222v6.458h51.556zm19.333-58.125c0-24.976-20.195-45.208-45.11-45.208-24.916 0-45.112 20.232-45.112 45.208 0 6.944 1.61 13.497 4.4 19.375l13.058 25.833h55.445L98.712 77.5c2.788-5.878 4.4-12.43 4.4-19.375zm-6.444 0h-6.445c0-17.835-14.424-32.292-32.222-32.292v-6.458c21.354 0 38.667 17.35 38.667 38.75z"/></g></g></svg>