<svg xmlns="http://www.w3.org/2000/svg" width="137" height="137" viewBox="0 0 137 137"><g><g><path fill="#e3d5b8" d="M133.634 117.492c4.459 4.46 4.459 11.683 0 16.142-4.46 4.459-11.682 4.459-16.142 0L68.49 84.63l-47.164 47.164c-4.46 4.459-11.682 4.459-16.142 0-4.458-4.459-4.458-11.682 0-16.141l51.2-51.2L2.82 10.891 0 0l10.891 2.82 53.563 53.563 15.077-15.077c-4.008-10.238-1.907-22.31 6.364-30.582l4.036-4.036c8.918-8.917 23.375-8.917 32.288 0l-4.036 4.036-16.14 16.14a5.696 5.696 0 0 0 0 8.072 5.695 5.695 0 0 0 8.07 0l16.141-16.142 4.035-4.035c8.918 8.912 8.918 23.37 0 32.288l-4.035 4.036c-8.27 8.271-20.344 10.372-30.582 6.364L84.63 68.49zM89.931 47.047c8.918 8.913 23.375 8.913 32.288 0l4.035-4.035c5.267-5.268 6.32-13.081 3.294-19.442l-15.4 15.4c-4.458 4.46-11.688 4.46-16.14 0-4.46-4.453-4.46-11.682 0-16.14l15.399-15.4c-6.36-3.027-14.174-1.973-19.436 3.294l-4.04 4.035c-8.912 8.912-8.912 23.37 0 32.288zM68.489 60.418l8.071 8.07 13.778-13.777a29.22 29.22 0 0 1-4.443-3.628 29.21 29.21 0 0 1-3.628-4.443zM25.36 119.69l-8.07-8.071-8.071 8.071a5.704 5.704 0 0 0 0 8.07 5.704 5.704 0 0 0 8.07 0zm4.035-4.036L68.49 76.56l-8.07-8.071-39.094 39.094zm80.027 1.84l8.07-8.072L81.17 73.1l-8.07 8.07zm20.176 4.034l-8.07-8.07-8.07 8.07 8.07 8.072a5.705 5.705 0 0 0 8.07 0 5.705 5.705 0 0 0 0-8.072z"/></g></g></svg>