<svg xmlns="http://www.w3.org/2000/svg" width="163" height="142" viewBox="0 0 163 142"><g><g><path fill="#e3d5b8" d="M149.85 75.228l-67.902 66.797L14.05 75.228a43.569 43.569 0 0 1 0-62.339c17.496-17.21 45.87-17.21 63.372 0 1.684 1.663 3.164 3.45 4.525 5.29 1.366-1.84 2.84-3.627 4.53-5.29 17.503-17.21 45.87-17.21 63.372 0a43.581 43.581 0 0 1 0 62.34zm-9.055-53.432c-12.496-12.293-32.766-12.293-45.269 0L81.948 35.154S71.36 24.733 68.368 21.796c-12.496-12.293-32.76-12.293-45.268 0a31.135 31.135 0 0 0 0 44.532c3.23 3.17 58.848 57.888 58.848 57.888s55.624-54.719 58.847-57.888a31.135 31.135 0 0 0 0-44.532zm-4.782 24.755c0 5.51-2.272 10.498-5.944 14.11l-4.781-4.702c2.45-2.405 3.962-5.732 3.962-9.408 0-7.349-6.056-13.306-13.527-13.306V26.59c11.203 0 20.29 8.94 20.29 19.96z"/></g></g></svg>